<?xml version="1.0" encoding="UTF-8"?><svg id="Layer_2" xmlns="http://www.w3.org/2000/svg" viewBox="0 0 353.67 223.39"><defs><style>.cls-1{fill:none;stroke:#58595b;stroke-miterlimit:10;stroke-width:15px;}.cls-2{fill:#58595b;}</style></defs><g id="Layer_1-2"><rect class="cls-2" x="0" y="6.21" width="136.75" height="14.79" rx="1" ry="1"/><rect class="cls-2" x="220.58" y="6.21" width="133.09" height="14.79" rx="1" ry="1"/><rect class="cls-2" x="53.33" y="0" width="37.75" height="13.21" rx=".5" ry=".5"/><rect class="cls-2" x="268.16" y="0" width="36.13" height="13.21" rx=".5" ry=".5"/><path class="cls-2" d="M223.57,133.67h-88.32c-3.31,0-6.18-2.49-6.88-5.99l-15.76-78.28c-.95-4.74,2.39-9.21,6.88-9.21h117.19c4.39,0,7.71,4.29,6.93,8.95l-13.12,78.28c-.61,3.62-3.52,6.25-6.93,6.25Z"/><rect class="cls-2" x="53.33" y="52.62" width="250.95" height="21.27" rx="1" ry="1"/><rect class="cls-2" x="275.52" y="15.39" width="20.79" height="62.53" rx="1" ry="1"/><rect class="cls-2" x="59.73" y="15.39" width="20.79" height="62.53" rx="1" ry="1"/><g><path class="cls-1" d="M112.97,223.38c-.18-90.64,29.8-115.05,29.8-115.05"/><path class="cls-1" d="M247.65,223.38c.2-90.64-32.9-115.05-32.9-115.05"/></g></g></svg>