<?xml version="1.0" encoding="UTF-8" standalone="no"?>
<svg
   id="Layer_2"
   viewBox="0 0 200.00001 109.99999"
   version="1.1"
   sodipodi:docname="drone_side_icon.svg"
   width="200"
   height="110"
   inkscape:version="1.2 (dc2aedaf03, 2022-05-15)"
   xmlns:inkscape="http://www.inkscape.org/namespaces/inkscape"
   xmlns:sodipodi="http://sodipodi.sourceforge.net/DTD/sodipodi-0.dtd"
   xmlns="http://www.w3.org/2000/svg"
   xmlns:svg="http://www.w3.org/2000/svg">
  <sodipodi:namedview
     id="namedview3041"
     pagecolor="#ffffff"
     bordercolor="#666666"
     borderopacity="1.0"
     inkscape:showpageshadow="2"
     inkscape:pageopacity="0.0"
     inkscape:pagecheckerboard="0"
     inkscape:deskcolor="#d1d1d1"
     showgrid="false"
     showguides="true"
     inkscape:lockguides="false"
     inkscape:zoom="3.440752"
     inkscape:cx="172.782"
     inkscape:cy="21.506927"
     inkscape:window-width="1920"
     inkscape:window-height="1009"
     inkscape:window-x="1072"
     inkscape:window-y="398"
     inkscape:window-maximized="1"
     inkscape:current-layer="layer1" />
  <defs
     id="defs3009">
    <style
       id="style3007">.cls-1,.cls-2,.cls-3,.cls-4,.cls-5{stroke-miterlimit:10;}.cls-1,.cls-2,.cls-4,.cls-5{stroke:#58595b;}.cls-1,.cls-2,.cls-6{fill:#58595b;}.cls-1,.cls-3,.cls-4,.cls-5{stroke-width:9px;}.cls-3{fill:#fff;stroke:#fff;}.cls-3,.cls-5{stroke-linecap:round;}.cls-4{stroke-linecap:square;}.cls-4,.cls-5{fill:none;}</style>
  </defs>
  <g
     inkscape:groupmode="layer"
     id="layer1"
     inkscape:label="Layer 1">
    <path
       id="path3526"
       style="display:inline;fill:#58595b;fill-opacity:1;stroke-width:0.296426"
       d="m 0,5e-6 v 3.9529246 3.951144 l 9.6191339,0.09976 c 2.9969891,0.03066 9.9954641,0.03943 18.1302021,0.03563 v 9.7798804 c 0,5.39871 -0.04993,12.99097 -0.110807,16.87342 l -0.110807,7.05968 h 17.088617 17.088617 v 14.10691 h 8.611902 L 61.62739,81.433116 c -4.830479,14.214931 -9.048906,26.648954 -9.373141,27.633074 l -0.589492,1.7903 4.832282,-0.002 4.832281,-0.004 8.821327,-25.625434 c 4.851754,-14.09319 9.141227,-26.557592 9.532708,-27.700222 l 0.57065,-1.66561 h 39.273225 l 0.57066,1.66561 c 0.39148,1.14263 4.68095,13.607032 9.5327,27.700752 l 8.82133,25.625434 4.83228,0.004 4.83228,0.002 -0.58949,-1.7903 c -0.32423,-0.98412 -4.54266,-13.418143 -9.37314,-27.633074 l -8.68947,-25.574292 h 8.61191 v -14.10691 h 17.08861 17.08862 l -0.11081,-7.05969 c -0.0609,-3.88244 -0.11081,-11.47471 -0.11081,-16.87341 V 8.0465856 c 8.13474,0.0038 15.13322,-0.0049 18.13021,-0.03563 l 9.61913,-0.09798 V 3.9564876 0 h -37.89258 -37.89258 v 3.9582686 3.956488 l 28.27344,0.09798 c 2.72743,0.0094 5.24759,0.0082 7.99581,0.01425 V 20.569824 33.135814 H 149.17136 138.07629 V 18.838304 H 61.704956 v 14.29751 H 50.609877 39.515905 V 20.569824 8.0180826 c 2.748225,-0.0061 5.268389,-0.0049 7.995815,-0.01425 l 28.27345,-0.0962 V 3.9529296 5e-6 H 37.892586 Z" />
  </g>
</svg>
