<?xml version="1.0" encoding="UTF-8"?><svg id="Layer_2" xmlns="http://www.w3.org/2000/svg" viewBox="0 0 352.58 351.01"><defs><style>.cls-1,.cls-2,.cls-3,.cls-4,.cls-5{stroke-miterlimit:10;}.cls-1,.cls-2,.cls-4,.cls-5{stroke:#58595b;}.cls-1,.cls-2,.cls-6{fill:#58595b;}.cls-1,.cls-3,.cls-4,.cls-5{stroke-width:9px;}.cls-3{fill:#fff;stroke:#fff;}.cls-3,.cls-5{stroke-linecap:round;}.cls-4{stroke-linecap:square;}.cls-4,.cls-5{fill:none;}</style></defs><g id="Layer_1-2"><polygon class="cls-1" points="71.04 84.67 115.47 146.92 115.47 204.42 71.04 267.6 85.79 283.46 148.21 238 203.16 237.32 270.67 283.46 286.27 268.53 239.8 206.12 239.46 149.8 284.58 84.67 269.65 69.41 207.23 114.86 149.57 114.19 85.45 69.41 71.04 84.67"/><circle class="cls-2" cx="71.04" cy="69.22" r="18.64"/><circle class="cls-6" cx="285.38" cy="67.53" r="18.64"/><circle class="cls-2" cx="71.04" cy="283.36" r="18.64"/><circle class="cls-6" cx="286.27" cy="283.55" r="18.64"/><line class="cls-4" x1="253.76" y1="315.76" x2="317.87" y2="252.32"/><line class="cls-4" x1="38.02" y1="100.02" x2="102.14" y2="36.59"/><line class="cls-4" x1="38.79" y1="251.98" x2="101.37" y2="316.1"/><line class="cls-4" x1="254.52" y1="36.25" x2="317.11" y2="100.36"/><circle class="cls-5" cx="66.9" cy="66.9" r="62.4"/><circle class="cls-5" cx="285.69" cy="66.9" r="62.4"/><circle class="cls-5" cx="66.9" cy="284.12" r="62.4"/><circle class="cls-5" cx="285.69" cy="284.12" r="62.4"/><polygon class="cls-3" points="182.38 146.53 164.92 166.64 173.8 166.76 173.63 201.4 182.21 201.3 191.14 201.35 191.31 167.15 200.09 167.09 182.38 146.53"/></g></svg>