<?xml version="1.0" encoding="UTF-8" standalone="no"?>
<!-- Created with Inkscape (http://www.inkscape.org/) -->

<svg
   width="200mm"
   height="200mm"
   viewBox="0 0 200 200"
   version="1.1"
   id="svg5"
   inkscape:version="1.2 (dc2aedaf03, 2022-05-15)"
   sodipodi:docname="drawing.svg"
   xmlns:inkscape="http://www.inkscape.org/namespaces/inkscape"
   xmlns:sodipodi="http://sodipodi.sourceforge.net/DTD/sodipodi-0.dtd"
   xmlns="http://www.w3.org/2000/svg"
   xmlns:svg="http://www.w3.org/2000/svg">
  <sodipodi:namedview
     id="namedview7"
     pagecolor="#ffffff"
     bordercolor="#666666"
     borderopacity="1.0"
     inkscape:showpageshadow="2"
     inkscape:pageopacity="0.0"
     inkscape:pagecheckerboard="0"
     inkscape:deskcolor="#d1d1d1"
     inkscape:document-units="mm"
     showgrid="false"
     inkscape:zoom="0.7180275"
     inkscape:cx="398.31344"
     inkscape:cy="306.39495"
     inkscape:window-width="1920"
     inkscape:window-height="1009"
     inkscape:window-x="1072"
     inkscape:window-y="398"
     inkscape:window-maximized="1"
     inkscape:current-layer="layer1" />
  <defs
     id="defs2">
    <inkscape:path-effect
       effect="fillet_chamfer"
       id="path-effect2745"
       is_visible="true"
       lpeversion="1"
       nodesatellites_param="F,0,0,1,0,3.96875,0,1 @ F,0,0,1,0,3.96875,0,1 @ F,0,0,1,0,3.96875,0,1 @ F,0,0,1,0,3.96875,0,1 @ F,0,0,1,0,3.96875,0,1 @ F,0,0,1,0,3.96875,0,1 @ F,0,0,1,0,3.96875,0,1 @ F,0,0,1,0,3.96875,0,1 @ F,0,0,1,0,3.96875,0,1 @ F,0,0,1,0,3.96875,0,1 @ F,0,0,1,0,3.96875,0,1"
       unit="px"
       method="auto"
       mode="F"
       radius="15"
       chamfer_steps="1"
       flexible="false"
       use_knot_distance="true"
       apply_no_radius="true"
       apply_with_radius="true"
       only_selected="false"
       hide_knots="false" />
  </defs>
  <g
     inkscape:label="Layer 1"
     inkscape:groupmode="layer"
     id="layer1"
     transform="translate(-70.380893,11.05459)">
    <ellipse
       style="fill:#000000;stroke-width:0.300153"
       id="path2423"
       cx="170.56514"
       cy="88.945412"
       rx="99.815758"
       ry="100" />
    <path
       id="rect113-7"
       style="fill:#ffffff;stroke-width:0.187243"
       d="M 168.27327,36.27196 126.7389,94.990859 a 2.0539808,2.0539808 62.636696 0 0 1.67688,3.240111 l 3.07629,0 a 3.96875,3.96875 45 0 1 3.96875,3.96875 v 36.63653 a 3.96875,3.96875 45 0 0 3.96875,3.96875 h 17.04134 a 3.96875,3.96875 135 0 0 3.96875,-3.96875 v -36.63653 a 3.96875,3.96875 135 0 1 3.96875,-3.96875 h 12.94288 a 3.96875,3.96875 45 0 1 3.96875,3.96875 v 36.63653 a 3.96875,3.96875 45 0 0 3.96875,3.96875 h 16.78089 a 3.96875,3.96875 135 0 0 3.96875,-3.96875 v -36.63653 a 3.96875,3.96875 135 0 1 3.96875,-3.96875 l 2.70733,0 a 2.0539806,2.0539806 117.3633 0 0 1.67688,-3.24011 L 172.85701,36.271959 a 2.8072659,2.8072659 180 0 0 -4.58374,10e-7 z"
       inkscape:path-effect="#path-effect2745"
       inkscape:original-d="M 170.56514,33.031849 124.44703,98.23097 h 11.01379 V 142.805 h 24.97884 V 98.23097 h 20.88038 V 142.805 h 24.71839 V 98.23097 h 10.64483 z" />
  </g>
</svg>
