<?xml version="1.0" encoding="UTF-8"?><svg id="Layer_2" xmlns="http://www.w3.org/2000/svg" viewBox="0 0 790.44 790.43"><g id="Layer_1-2"><g><path d="M395.22,790.43c-53.34,0-105.1-10.45-153.84-31.07-47.06-19.91-89.33-48.4-125.62-84.69-36.29-36.29-64.78-78.55-84.69-125.62C10.45,500.32,0,448.56,0,395.22s10.45-105.1,31.07-153.84c19.91-47.06,48.4-89.33,84.69-125.62,36.29-36.29,78.55-64.78,125.62-84.69C290.11,10.45,341.87,0,395.22,0s105.1,10.45,153.84,31.07c47.07,19.91,89.33,48.4,125.62,84.69,36.29,36.29,64.78,78.55,84.69,125.62,20.61,48.74,31.07,100.5,31.07,153.84s-10.45,105.1-31.07,153.84c-19.91,47.06-48.4,89.33-84.69,125.62-36.29,36.29-78.55,64.78-125.62,84.69-48.74,20.61-100.5,31.07-153.84,31.07Zm0-744.61C202.56,45.82,45.82,202.56,45.82,395.22s156.74,349.39,349.39,349.39,349.39-156.74,349.39-349.39S587.87,45.82,395.22,45.82Z"/><g><path d="M624.99,368.94l-81.99-64.37v-73.2c0-3.4-2.76-6.15-6.15-6.15h-46.95c-3.4,0-6.15,2.76-6.15,6.15v26.68l-74.37-58.39c-8.37-6.57-20.14-6.57-28.5,0l-214.86,168.68c-9.94,7.81-12.59,22.27-5.09,32.44,7.76,10.52,22.62,12.47,32.83,4.46l191.86-150.63c5.58-4.38,13.42-4.38,19,0l191.87,150.63c4.23,3.32,9.25,4.93,14.23,4.93,6.84,0,13.62-3.03,18.17-8.83,7.87-10.02,6.12-24.53-3.9-32.4Z"/><path d="M385.72,277.26l-168.47,132.24c-1.49,1.17-2.35,2.95-2.35,4.84v175.19c0,3.4,2.76,6.15,6.15,6.15h123.54c3.4,0,6.15-2.76,6.15-6.15v-119.32c0-3.4,2.76-6.15,6.15-6.15h76.65c3.4,0,6.15,2.76,6.15,6.15v119.32c0,3.4,2.76,6.15,6.15,6.15h123.54c3.4,0,6.15-2.76,6.15-6.15v-175.19c0-1.89-.87-3.67-2.35-4.84l-168.47-132.24c-5.58-4.38-13.42-4.38-19,0Z"/></g></g></g></svg>