<?xml version="1.0" standalone="no"?>
<!DOCTYPE svg PUBLIC "-//W3C//DTD SVG 20010904//EN"
 "http://www.w3.org/TR/2001/REC-SVG-20010904/DTD/svg10.dtd">
<svg version="1.0" xmlns="http://www.w3.org/2000/svg"
 width="853.000000pt" height="853.000000pt" viewBox="0 0 853.000000 853.000000"
 preserveAspectRatio="xMidYMid meet">
<metadata>
Created by potrace 1.14, written by Peter Selinger 2001-2017
</metadata>
<g transform="translate(0.000000,853.000000) scale(0.100000,-0.100000)"
fill="#000000" stroke="none">
<path d="M2315 6484 c-93 -14 -245 -59 -320 -93 -11 -5 -51 -24 -90 -42 -145
-67 -311 -194 -348 -266 -38 -72 -25 -142 34 -186 27 -20 111 -25 184 -11 53
10 38 29 -21 26 -63 -3 -99 12 -115 50 -17 42 6 86 78 142 96 75 368 203 513
241 102 27 146 34 206 35 77 0 114 -20 114 -61 0 -52 -87 -131 -228 -205 -83
-45 -86 -43 -97 44 -9 75 -38 104 -90 92 -21 -5 -47 -18 -59 -29 -18 -18 -19
-25 -9 -62 l11 -41 -165 -164 -164 -165 -30 26 c-53 44 -94 37 -324 -55 -261
-104 -313 -140 -303 -212 l5 -29 -234 3 c-129 1 -238 5 -242 8 -4 3 -14 19
-22 35 -20 42 -73 47 -118 10 -41 -35 -39 -60 8 -130 22 -32 38 -62 35 -66 -8
-13 -152 -56 -231 -69 -85 -14 -139 -7 -169 21 -60 56 35 155 251 259 238 115
341 149 503 169 99 11 159 -23 147 -84 -2 -11 -4 -23 -4 -27 -1 -3 -19 -25
-42 -47 -61 -59 -43 -70 28 -17 93 68 116 132 77 208 -62 120 -414 83 -737
-78 -252 -125 -366 -245 -338 -352 21 -77 93 -108 231 -99 75 6 216 38 291 68
17 7 34 7 53 -1 25 -9 31 -7 58 22 36 39 94 68 123 62 11 -2 38 -7 60 -9 22
-3 57 -8 78 -10 106 -14 225 -27 277 -30 35 -3 50 -10 70 -32 63 -73 77 -90
97 -119 l22 -31 -37 -35 c-50 -47 -241 -203 -321 -262 -49 -36 -67 -44 -77
-35 -21 18 -82 2 -100 -26 -20 -30 -13 -52 40 -126 43 -61 66 -71 101 -45 17
12 18 18 7 67 -7 29 -9 56 -5 60 5 4 51 32 103 62 92 52 257 154 331 203 45
30 60 30 87 -1 12 -14 29 -25 37 -25 26 0 178 60 217 85 33 22 38 30 38 65 0
22 1 40 3 40 2 0 263 57 297 65 8 2 63 15 122 29 59 14 113 26 120 26 7 0 25
-21 40 -46 24 -38 31 -44 54 -40 44 8 47 17 35 108 -15 114 -40 134 -118 96
-13 -6 -23 -17 -23 -23 0 -21 -23 -33 -75 -39 -133 -18 -187 -24 -265 -31
-136 -12 -190 -13 -196 -4 -3 5 -7 33 -10 62 -2 28 -6 79 -9 111 -3 33 -1 62
3 65 12 9 148 173 227 275 74 96 107 117 175 114 36 -1 46 4 74 34 18 20 44
39 57 43 46 15 199 116 243 162 81 83 99 164 51 222 -46 54 -130 68 -280 45z"/>
<path d="M3025 6022 c-17 -2 -30 -35 -79 -200 -33 -108 -90 -296 -127 -417
-37 -121 -106 -348 -153 -504 -48 -157 -89 -287 -91 -289 -9 -9 -160 51 -300
118 -141 68 -303 168 -406 252 l-56 46 -34 -18 c-40 -21 -105 -50 -112 -50 -3
0 -18 -5 -34 -11 l-28 -10 25 -20 c197 -159 381 -270 583 -354 107 -44 240
-91 285 -100 28 -6 32 -10 26 -28 -4 -12 -13 -42 -20 -67 -7 -25 -22 -76 -34
-115 -12 -38 -25 -83 -30 -100 -5 -16 -29 -97 -54 -179 -25 -82 -44 -151 -42
-154 9 -8 727 -5 735 4 4 5 36 126 71 269 35 143 66 263 69 267 3 4 58 9 121
13 63 3 126 7 140 9 43 7 144 20 160 20 11 1 31 -69 83 -279 38 -154 70 -286
73 -292 2 -9 29 -13 86 -13 46 -1 215 -2 376 -3 228 -2 292 1 292 11 0 11 -82
288 -185 626 -20 65 -34 124 -31 131 2 7 33 22 68 35 34 13 85 34 111 47 26
13 52 21 56 19 11 -7 14 -17 151 -476 62 -206 116 -380 121 -385 5 -7 163 -10
445 -10 l438 0 54 175 c29 96 82 270 117 385 158 518 321 1053 400 1315 48
157 90 295 92 308 l5 22 -370 0 c-344 0 -371 -1 -376 -17 -4 -16 -91 -368
-102 -418 -3 -11 -60 -243 -128 -515 -114 -459 -123 -492 -134 -460 -6 19 -61
238 -122 485 -61 248 -137 556 -169 685 l-58 235 -376 3 c-208 1 -377 -2 -377
-6 0 -5 84 -285 186 -623 191 -634 194 -644 197 -669 1 -11 -33 -27 -122 -58
-68 -23 -125 -41 -126 -40 -1 2 -11 35 -23 73 -11 39 -32 108 -46 155 -14 47
-62 207 -107 355 -44 149 -103 344 -131 435 -27 91 -54 179 -58 195 -5 17 -19
65 -31 108 l-22 77 -46 1 c-178 2 -810 3 -826 1z m550 -1292 c19 -79 55 -231
55 -233 0 -10 -366 -14 -376 -5 -3 3 2 34 11 69 10 35 18 71 20 79 13 59 138
562 147 589 11 35 22 -5 143 -499z"/>
<path d="M6554 4923 c0 -604 3 -1100 7 -1103 6 -4 611 -5 644 -1 7 1 10 120
10 347 0 272 2 347 13 351 7 3 61 6 121 7 l109 1 179 -355 178 -355 353 0
c195 0 355 2 357 5 2 3 -18 44 -44 91 -49 89 -117 215 -191 354 -23 44 -55
103 -71 130 -68 122 -111 203 -126 235 -15 33 -14 35 8 49 13 8 58 49 99 90
142 144 201 314 195 556 -5 205 -61 351 -181 472 -102 102 -251 171 -456 210
-18 3 -296 8 -618 10 l-585 4 -1 -1098z m1047 558 c45 -14 91 -55 115 -101 13
-26 18 -57 18 -116 -1 -70 -5 -89 -27 -127 -47 -80 -126 -103 -352 -103 l-140
1 -1 225 c0 124 2 229 4 233 6 13 340 2 383 -12z"/>
<path d="M2568 5695 c-2 -2 -25 -5 -53 -8 -162 -18 -460 -138 -519 -208 -24
-29 -36 -89 -18 -89 4 0 51 23 104 50 241 126 551 213 603 170 26 -22 -16 -85
-88 -130 -90 -56 -103 -67 -95 -76 14 -13 138 59 188 108 73 73 78 144 12 170
-23 9 -127 19 -134 13z"/>
<path d="M995 5095 c-138 -34 -236 -77 -367 -162 -178 -115 -231 -211 -146
-263 44 -27 169 -22 252 10 81 31 53 45 -39 20 -115 -30 -197 -12 -180 39 6
19 76 76 131 107 80 45 274 137 314 148 108 32 197 61 205 68 13 11 -14 36
-51 47 -21 6 -55 2 -119 -14z"/>
<path d="M3767 3519 c-58 -16 -89 -66 -90 -143 -1 -94 47 -150 129 -148 55 0
92 24 111 70 13 32 13 32 -17 32 -16 0 -30 -4 -30 -10 0 -19 -40 -50 -65 -50
-15 0 -36 11 -50 26 -36 39 -36 124 0 159 13 14 35 25 49 25 23 0 66 -34 66
-52 0 -10 21 -10 38 1 12 7 11 14 -2 39 -25 47 -80 68 -139 51z"/>
<path d="M5777 3519 c-58 -16 -89 -66 -89 -144 0 -95 45 -148 127 -148 55 0
93 24 112 71 13 32 13 32 -15 32 -21 0 -32 -7 -40 -25 -22 -49 -102 -42 -122
11 -12 32 -13 85 -1 116 20 53 101 61 123 13 12 -26 24 -30 46 -17 9 7 10 15
3 35 -18 47 -84 73 -144 56z"/>
<path d="M6900 3521 c-84 -20 -127 -135 -83 -226 29 -62 120 -88 185 -54 56
30 83 141 50 208 -28 57 -90 87 -152 72z m79 -58 c46 -37 45 -145 -2 -178 -69
-48 -141 23 -123 121 13 66 78 95 125 57z"/>
<path d="M7428 3509 c-46 -24 -70 -74 -67 -142 4 -67 30 -111 77 -130 69 -27
141 -3 172 59 18 36 17 121 -1 159 -31 63 -114 88 -181 54z m117 -54 c21 -20
25 -34 25 -80 0 -46 -4 -60 -25 -80 -25 -26 -63 -32 -95 -15 -45 24 -50 145
-8 182 30 26 74 23 103 -7z"/>
<path d="M8072 3509 c-69 -34 -93 -138 -52 -220 23 -45 56 -62 116 -62 51 1
89 25 103 65 14 40 15 38 -14 38 -15 0 -29 -8 -36 -22 -7 -13 -17 -26 -23 -30
-23 -16 -63 -7 -87 18 -19 21 -24 36 -24 79 1 63 30 105 75 105 27 0 60 -27
60 -49 0 -19 44 -9 48 11 2 9 -9 30 -25 47 -36 40 -86 47 -141 20z"/>
<path d="M8332 3510 c-34 -15 -40 -23 -44 -55 -5 -44 18 -79 59 -89 88 -22
101 -27 106 -46 13 -50 -79 -71 -109 -25 -21 32 -63 35 -61 4 2 -26 51 -68 80
-70 91 -6 133 13 143 66 11 60 -18 87 -118 109 -15 3 -34 13 -43 22 -15 15
-15 18 1 35 23 26 80 25 96 -1 7 -11 23 -20 36 -20 18 0 23 5 20 21 -8 54 -97
80 -166 49z"/>
<path d="M2430 3501 c-12 -24 -67 -170 -86 -228 -13 -42 -13 -43 10 -43 18 0
27 9 39 38 15 37 16 38 68 37 51 0 53 -1 64 -35 9 -27 18 -36 38 -38 15 -2 27
0 27 5 0 4 -24 69 -52 145 -46 121 -55 138 -75 138 -12 0 -27 -9 -33 -19z m53
-108 c18 -46 13 -52 -33 -45 l-28 4 16 49 c17 54 21 53 45 -8z"/>
<path d="M2628 3513 c-2 -4 -4 -69 -4 -143 l1 -135 67 -1 c115 -3 170 42 171
137 1 66 -23 116 -65 133 -34 15 -164 21 -170 9z m124 -42 c56 -4 80 -115 36
-166 -17 -18 -35 -26 -65 -29 -27 -2 -43 1 -44 8 -4 31 -5 172 -2 181 3 10 16
11 75 6z"/>
<path d="M2926 3379 c30 -78 54 -143 54 -145 0 -2 11 -4 24 -4 20 0 28 9 42
48 10 26 21 52 24 57 4 6 9 19 12 30 3 11 17 50 31 88 l26 67 -27 0 c-25 0
-30 -6 -46 -52 -10 -29 -24 -66 -30 -83 -7 -16 -17 -41 -23 -54 -9 -23 -11
-22 -27 28 -47 146 -56 161 -86 161 l-28 0 54 -141z"/>
<path d="M3214 3508 c-12 -17 -104 -258 -104 -270 0 -5 10 -8 22 -6 15 2 29
16 39 38 16 33 20 35 68 36 49 0 51 -1 63 -33 11 -30 49 -55 64 -41 2 3 -19
68 -48 144 -44 114 -57 140 -75 142 -11 2 -25 -3 -29 -10z m46 -110 c6 -21 9
-41 6 -46 -8 -13 -68 -2 -62 12 3 6 10 28 17 49 14 42 21 39 39 -15z"/>
<path d="M3406 3498 c-3 -13 -4 -77 -3 -143 2 -116 3 -120 25 -123 25 -4 24
-7 23 116 0 39 1 72 3 72 2 0 34 -46 104 -152 18 -28 31 -37 48 -36 l24 2 0
143 0 143 -25 0 c-28 0 -27 2 -27 -134 l0 -68 -41 63 c-22 35 -50 81 -64 102
-27 43 -60 50 -67 15z"/>
<path d="M3969 3492 c-1 -49 -1 -217 0 -238 1 -21 6 -22 95 -22 89 0 94 1 98
22 4 21 1 22 -68 22 -70 -1 -73 0 -76 24 -8 57 -2 62 68 58 61 -4 64 -3 64 19
0 22 -4 23 -64 23 -59 0 -64 2 -68 23 -9 44 2 52 72 52 60 0 65 2 66 23 1 21
-1 22 -92 21 l-94 -1 -1 -26z"/>
<path d="M4209 3488 c0 -40 0 -240 0 -250 1 -4 37 -6 80 -4 91 5 122 21 145
76 18 44 14 122 -8 156 -24 35 -69 51 -148 53 l-68 1 -1 -32z m152 -28 c31
-17 43 -94 22 -138 -16 -33 -25 -38 -85 -47 l-38 -6 -1 45 c0 25 0 66 0 91 0
25 0 51 0 59 1 16 69 13 102 -4z"/>
<path d="M4560 3515 c0 -7 56 -156 84 -225 19 -44 28 -55 46 -55 18 0 27 11
46 55 29 71 84 218 84 225 0 4 -12 5 -26 3 -23 -3 -30 -14 -58 -88 -18 -47
-35 -94 -40 -105 -5 -15 -15 3 -41 78 -19 53 -37 102 -40 107 -6 10 -55 14
-55 5z"/>
<path d="M4858 3513 c-2 -5 -4 -69 -4 -143 l1 -135 98 -1 c95 -2 97 -1 97 21
0 22 -3 23 -57 21 -80 -4 -90 0 -87 32 1 15 2 33 3 40 1 8 12 13 29 12 77 -5
102 0 102 20 0 18 -7 20 -69 20 l-69 0 3 33 c2 17 4 35 4 38 1 3 30 5 66 4 47
-1 66 2 70 13 3 7 3 17 0 22 -6 10 -183 13 -187 3z"/>
<path d="M5098 3514 c-2 -5 -4 -70 -4 -144 l1 -135 25 0 c24 0 25 3 25 55 0
46 3 55 18 54 9 -1 26 -2 37 -3 11 0 20 -8 20 -16 0 -8 9 -32 20 -53 16 -30
27 -39 45 -39 31 0 31 1 -1 66 l-25 53 20 22 c30 32 28 86 -5 117 -21 20 -38
24 -98 27 -41 2 -76 0 -78 -4z m136 -54 c35 -28 10 -71 -42 -72 -49 -2 -53 7
-43 83 2 12 69 3 85 -11z"/>
<path d="M5324 3497 c1 -19 7 -22 41 -23 l40 0 5 -120 c5 -114 6 -119 28 -122
25 -4 24 -10 24 141 l0 97 44 0 c40 0 44 2 44 24 0 25 0 25 -114 25 -111 1
-113 0 -112 -22z"/>
<path d="M5589 3453 c-3 -219 -2 -225 24 -221 22 3 22 6 24 145 l2 143 -24 -2
c-24 -2 -25 -6 -26 -65z"/>
<path d="M6002 3383 c-29 -76 -52 -140 -52 -143 0 -3 11 -7 24 -8 18 -1 26 6
38 37 15 38 16 38 67 36 58 -2 55 0 68 -40 7 -23 16 -30 36 -31 15 -1 27 2 26
5 0 3 -24 67 -52 141 -46 120 -55 135 -77 138 -24 3 -28 -5 -78 -135z m99 12
l17 -45 -40 0 c-28 0 -39 4 -35 13 2 6 10 29 18 49 15 43 17 42 40 -17z"/>
<path d="M6244 3378 l1 -143 93 -2 92 -3 0 26 c0 23 -4 25 -32 24 -18 -1 -50
-2 -70 -1 l-38 1 1 88 c2 152 2 152 -24 152 l-24 0 1 -142z"/>
<path d="M6559 3508 c-1 -21 -1 -231 0 -254 1 -16 7 -21 26 -21 24 0 25 2 25
57 0 53 2 56 23 54 12 -1 27 -3 33 -3 6 -1 20 -25 33 -55 20 -49 25 -55 51
-54 28 1 28 2 16 27 -47 97 -47 95 -27 111 40 33 30 110 -18 133 -38 19 -161
23 -162 5z m139 -43 c6 -2 12 -18 12 -34 0 -32 -17 -43 -65 -44 -28 -1 -30 2
-36 41 -3 25 -1 43 5 45 13 4 65 -1 84 -8z"/>
<path d="M7116 3511 c-1 -3 -2 -67 -2 -141 l1 -135 83 1 c68 0 86 4 102 20 29
29 34 77 11 105 -17 21 -17 26 -4 46 24 36 8 82 -33 99 -33 14 -152 18 -158 5z
m128 -41 c50 -19 26 -61 -37 -66 -46 -4 -46 -4 -45 29 0 17 3 35 5 40 6 10 47
9 77 -3z m15 -119 c46 -25 -2 -84 -64 -79 -28 3 -30 6 -33 46 l-3 42 41 0 c23
0 49 -4 59 -9z"/>
<path d="M7640 3494 c0 -20 5 -25 23 -24 67 6 65 8 65 -87 0 -159 -1 -155 25
-151 21 3 22 7 23 116 1 62 5 116 8 119 3 4 23 7 43 7 29 1 37 5 39 23 4 21 1
21 -111 22 l-115 1 0 -26z"/>
<path d="M7905 3508 c-2 -7 -3 -71 -2 -143 2 -126 3 -130 25 -133 16 -2 22 2
22 15 1 36 2 229 1 251 -1 15 -7 22 -21 22 -11 0 -23 -6 -25 -12z"/>
<path d="M2530 3011 c-76 -23 -127 -70 -162 -146 -18 -41 -22 -68 -22 -145 0
-86 2 -102 29 -155 39 -79 100 -121 188 -132 34 -4 64 -7 67 -6 3 0 24 4 48 7
61 8 108 33 146 78 33 38 63 119 51 139 -4 5 -43 9 -88 9 l-82 0 -19 -35 c-11
-19 -26 -36 -35 -36 -88 -8 -121 35 -115 154 4 90 40 132 101 115 23 -6 35
-16 39 -34 l7 -26 85 6 c47 4 89 9 94 12 10 7 0 49 -23 96 -23 45 -71 82 -124
97 -45 12 -147 13 -185 2z"/>
<path d="M3140 3001 c-65 -23 -127 -85 -151 -153 -24 -65 -20 -208 8 -270 43
-96 132 -149 252 -150 179 -1 280 97 287 277 6 141 -35 229 -129 281 -69 37
-185 44 -267 15z m181 -167 c30 -32 39 -145 14 -197 -28 -59 -96 -71 -142 -24
-45 44 -45 175 -1 224 35 37 92 36 129 -3z"/>
<path d="M7494 3000 c-61 -24 -104 -65 -135 -128 -20 -40 -23 -63 -23 -152 -1
-90 3 -111 22 -148 50 -94 129 -141 242 -143 106 -3 176 25 233 91 46 54 66
125 63 225 -4 124 -46 199 -141 248 -59 30 -192 34 -261 7z m188 -167 c20 -22
23 -34 23 -110 0 -83 -1 -85 -32 -113 -31 -28 -50 -31 -105 -14 -41 12 -63
132 -39 207 21 64 105 81 153 30z"/>
<path d="M3663 2725 l-1 -283 67 0 c103 -1 97 -10 96 133 0 68 2 121 6 117 3
-4 18 -54 34 -112 40 -147 35 -140 106 -139 70 2 62 -9 109 147 17 56 32 102
33 102 2 0 3 -56 2 -125 l-2 -125 84 2 c68 1 83 4 84 17 0 9 1 134 2 279 2
226 0 263 -13 266 -8 2 -54 4 -103 4 -72 0 -89 -2 -95 -16 -5 -9 -28 -84 -52
-165 -32 -109 -46 -143 -53 -131 -5 9 -10 21 -11 27 -1 7 -7 28 -13 47 -7 19
-26 81 -43 137 l-31 101 -103 0 -103 0 0 -283z"/>
<path d="M4420 2724 l0 -286 88 4 87 3 0 83 0 82 40 1 c120 2 186 33 219 104
33 69 17 194 -31 237 -45 41 -93 51 -250 54 l-153 3 0 -285z m276 125 c8 -6
14 -24 14 -40 0 -35 -32 -57 -80 -55 -35 1 -35 2 -35 46 -1 25 1 50 3 56 4 14
79 9 98 -7z"/>
<path d="M4996 3002 c-2 -4 -4 -132 -5 -284 l-2 -276 213 1 213 2 6 65 c4 36
5 67 4 68 -2 2 -60 4 -129 4 l-126 1 0 38 0 37 73 0 c39 0 91 1 114 1 l43 1
-3 70 -2 70 -112 0 -113 0 0 34 0 34 115 0 c64 -1 118 2 122 5 5 5 6 49 4 113
-1 21 -4 21 -206 22 -112 1 -206 -2 -209 -6z"/>
<path d="M5520 2929 l0 -79 78 0 79 0 1 -192 c0 -106 1 -199 1 -206 1 -10 23
-12 89 -10 l87 3 2 190 c1 105 2 196 2 203 1 8 24 12 79 12 l77 0 0 79 0 78
-247 0 -248 0 0 -78z"/>
<path d="M6129 2937 c-1 -108 -1 -470 0 -484 1 -8 29 -11 90 -11 l90 1 -2 281
-2 281 -87 2 -88 3 -1 -73z"/>
<path d="M6420 2929 l0 -79 78 0 77 0 0 -202 0 -203 88 -1 c82 -2 87 -1 92 20
2 11 4 95 4 186 -1 91 -1 173 0 183 1 15 12 17 76 17 64 0 75 2 76 18 1 19 1
110 0 128 -1 9 -69 12 -246 12 l-245 -1 0 -78z"/>
<path d="M7027 3002 c-3 -6 -1 -537 2 -554 0 -5 41 -8 90 -8 l89 0 1 284 1
284 -90 0 c-50 0 -91 -3 -93 -6z"/>
<path d="M8025 2996 c-2 -6 -3 -132 -2 -281 l2 -270 83 -3 c73 -2 82 -1 83 15
0 10 1 71 1 136 0 64 4 117 9 117 5 0 9 -4 9 -9 0 -6 36 -66 81 -135 l81 -125
69 0 c41 1 72 6 76 12 4 7 8 132 8 280 0 301 8 276 -85 276 -91 0 -86 8 -85
-139 0 -72 -2 -130 -5 -130 -3 0 -43 61 -88 135 l-84 134 -75 -1 c-44 -1 -76
-6 -78 -12z"/>
<path d="M7319 2212 c-11 -2 -19 -19 -25 -50 -8 -51 -9 -55 -19 -100 l-6 -30
48 2 c26 2 56 6 66 11 21 9 34 52 19 67 -8 8 -6 15 4 25 17 18 18 47 2 61 -15
11 -65 19 -89 14z m70 -31 c21 -13 -1 -38 -39 -43 -25 -4 -30 -1 -30 17 0 12
3 25 7 28 9 10 45 8 62 -2z m-16 -70 c12 -2 8 -39 -5 -48 -17 -10 -58 -12 -63
-2 -3 4 -1 18 4 32 7 17 16 23 33 21 12 -1 26 -3 31 -3z"/>
<path d="M7813 2128 l-20 -88 22 -6 c36 -9 89 3 107 25 16 21 14 61 -3 61 -5
0 0 9 11 20 11 11 20 24 20 29 0 15 -30 41 -48 42 -9 0 -29 2 -43 3 -26 1 -27
-2 -46 -86z m105 41 c2 -11 -7 -20 -26 -27 -36 -13 -53 -3 -45 26 4 19 11 22
37 20 19 -2 32 -9 34 -19z m-34 -59 c48 -18 24 -56 -34 -55 -19 0 -24 4 -22
20 4 18 20 45 28 45 1 0 14 -4 28 -10z"/>
<path d="M8492 2208 c-7 -7 -12 -22 -12 -35 0 -25 -10 -29 -27 -12 -18 18 -70
-8 -81 -40 -13 -36 -4 -79 17 -85 9 -3 31 -5 49 -4 35 1 37 5 63 126 12 57 10
69 -9 50z m-38 -73 c12 -12 13 -22 5 -44 -11 -32 -30 -44 -54 -35 -23 9 -19
60 7 78 27 19 23 19 42 1z"/>
<path d="M7060 2124 c-29 -47 -49 -88 -45 -92 4 -4 16 5 27 21 16 21 28 27 59
27 35 0 39 -3 39 -25 0 -15 6 -25 14 -25 14 0 15 4 2 85 -13 81 -18 95 -31 95
-8 0 -37 -39 -65 -86z m66 10 c-1 -21 -6 -28 -23 -29 -27 -2 -27 -2 -8 36 18
35 32 31 31 -7z"/>
<path d="M7624 2198 c-4 -6 -8 -21 -10 -32 -1 -12 -7 -45 -13 -75 -6 -30 -9
-57 -6 -60 8 -7 24 19 26 42 1 9 2 20 3 25 1 4 6 23 10 42 4 19 10 43 12 53 6
19 -11 23 -22 5z"/>
<path d="M7682 2163 c-20 -82 -25 -133 -14 -133 6 0 13 8 15 18 9 30 16 68 23
108 3 21 8 42 11 47 2 4 -2 7 -10 7 -8 0 -18 -20 -25 -47z"/>
<path d="M7484 2160 c-28 -11 -32 -19 -38 -64 -3 -24 1 -41 10 -51 22 -21 68
-19 89 5 20 22 6 27 -24 8 -22 -14 -51 -4 -51 17 0 15 21 20 72 16 24 -2 26 1
22 26 -5 28 -28 54 -48 52 -6 0 -21 -4 -32 -9z m40 -16 c30 -12 18 -34 -19
-34 -40 0 -41 2 -19 24 18 18 17 18 38 10z"/>
<path d="M8026 2163 c-4 -4 -15 -8 -23 -8 -17 0 -24 -17 -37 -87 -10 -55 11
-48 27 10 10 33 21 51 41 60 14 7 24 17 21 23 -7 11 -19 12 -29 2z"/>
<path d="M8103 2159 c-13 -4 -23 -13 -23 -19 0 -7 9 -9 23 -5 12 4 24 7 27 7
42 1 30 -29 -12 -30 -41 -1 -62 -23 -54 -56 6 -24 10 -26 54 -23 l47 3 9 52
c12 70 -13 94 -71 71z m47 -69 c0 -13 -30 -40 -45 -40 -21 0 -27 17 -12 32 16
15 57 21 57 8z"/>
<path d="M8263 2163 c-35 -5 -39 -12 -48 -85 -8 -58 11 -67 21 -10 10 55 22
72 50 72 28 0 28 5 9 -88 -6 -31 17 -23 26 9 13 46 10 97 -7 103 -9 3 -16 5
-17 4 -1 0 -16 -3 -34 -5z"/>
</g>
</svg>
