<?xml version="1.0" standalone="no"?>
<!DOCTYPE svg PUBLIC "-//W3C//DTD SVG 20010904//EN"
 "http://www.w3.org/TR/2001/REC-SVG-20010904/DTD/svg10.dtd">
<svg version="1.0" xmlns="http://www.w3.org/2000/svg"
 width="256.000000pt" height="256.000000pt" viewBox="0 0 256.000000 256.000000"
 preserveAspectRatio="xMidYMid meet">
<metadata>
Created by potrace 1.14, written by Peter Selinger 2001-2017
</metadata>
<g transform="translate(0.000000,256.000000) scale(0.100000,-0.100000)"
fill="#000000" stroke="none">
<path d="M282 2213 l3 -338 988 -3 987 -2 0 340 0 340 -990 0 -990 0 2 -337z
m506 209 c32 -18 62 -71 62 -108 0 -17 -10 -43 -21 -58 l-21 -27 20 -22 c11
-12 23 -32 26 -44 11 -36 -12 -99 -45 -127 -30 -25 -34 -26 -175 -26 l-144 0
0 105 c0 116 11 155 54 194 35 32 33 41 -9 41 -44 0 -102 47 -92 74 7 16 21
18 165 14 103 -2 165 -8 180 -16z m482 -27 l0 -45 -105 0 -105 0 0 -45 0 -45
90 0 90 0 0 -40 0 -40 -90 0 -90 0 0 -45 0 -45 105 0 105 0 0 -40 0 -40 -160
0 -160 0 0 193 c0 248 -11 235 193 236 l127 1 0 -45z m204 39 c14 -5 16 -30
16 -175 l0 -169 105 0 105 0 0 -40 0 -40 -164 0 -165 0 0 178 c0 191 6 217 49
239 29 15 33 15 54 7z m424 -171 l2 -173 105 0 105 0 0 -40 0 -40 -160 0 -160
0 0 190 c0 191 0 191 25 216 17 17 34 24 53 22 l27 -3 3 -172z"/>
<path d="M610 2305 l0 -45 54 0 c75 0 109 36 70 74 -10 11 -34 16 -70 16 l-54
0 0 -45z"/>
<path d="M610 2140 l0 -50 55 0 c42 0 60 5 75 20 11 11 20 25 20 30 0 6 -9 19
-20 30 -15 15 -33 20 -75 20 l-55 0 0 -50z"/>
<path d="M285 1788 c-3 -13 -5 -185 -3 -383 l3 -360 75 -129 c157 -269 400
-524 784 -825 59 -46 108 -82 110 -80 2 2 -2 44 -9 94 -7 50 -16 234 -19 409
-5 259 -9 325 -22 350 -14 29 -14 32 6 48 11 9 20 19 20 22 0 3 -18 17 -40 31
-22 14 -40 31 -40 39 0 19 120 117 133 109 29 -17 117 -99 117 -109 0 -6 -18
-23 -40 -38 -46 -30 -48 -38 -19 -57 19 -13 19 -16 6 -49 -11 -26 -16 -111
-21 -345 -5 -276 -12 -385 -32 -478 -3 -15 -2 -27 3 -27 16 0 285 219 413 335
294 268 522 566 550 716 6 32 9 198 8 399 l-3 345 -410 0 -410 0 -70 -38 c-38
-22 -74 -42 -78 -47 -5 -4 12 -36 37 -71 53 -73 57 -95 19 -110 -33 -13 -160
-6 -175 9 -16 16 -3 52 42 110 22 29 40 54 40 56 0 2 -33 23 -72 47 l-73 44
-412 3 -412 3 -6 -23z m361 -208 c142 -27 305 -58 360 -69 108 -21 178 -49
206 -85 14 -17 18 -42 18 -126 l0 -105 -93 -62 c-145 -97 -125 -93 -450 -93
l-284 0 -22 24 c-21 23 -22 24 -4 30 255 78 758 237 761 241 15 15 -24 21
-166 25 -180 7 -173 4 -435 137 -114 58 -151 81 -162 104 -13 24 -13 29 -2 29
8 0 130 -22 273 -50z m1534 37 c0 -26 -46 -55 -215 -140 -217 -108 -247 -117
-399 -117 -119 0 -166 -6 -166 -19 0 -6 305 -104 729 -234 l64 -20 -27 -24
-28 -24 -297 3 c-287 3 -297 4 -339 26 -53 28 -162 107 -179 130 -17 22 -17
164 1 205 30 70 56 79 484 162 356 69 372 71 372 52z"/>
</g>
</svg>
