<?xml version="1.0" encoding="UTF-8" standalone="no"?>
<!-- Created with Inkscape (http://www.inkscape.org/) -->

<svg
   version="1.1"
   id="svg2"
   xml:space="preserve"
   width="545.64001"
   height="285.73334"
   viewBox="0 0 545.64001 285.73334"
   sodipodi:docname="BELL_Logo_AVR-Competition_RGB_081822-R00.eps"
   xmlns:inkscape="http://www.inkscape.org/namespaces/inkscape"
   xmlns:sodipodi="http://sodipodi.sourceforge.net/DTD/sodipodi-0.dtd"
   xmlns="http://www.w3.org/2000/svg"
   xmlns:svg="http://www.w3.org/2000/svg"><defs
     id="defs6" /><sodipodi:namedview
     id="namedview4"
     pagecolor="#ffffff"
     bordercolor="#666666"
     borderopacity="1.0"
     inkscape:pageshadow="2"
     inkscape:pageopacity="0.0"
     inkscape:pagecheckerboard="0" /><g
     id="g8"
     inkscape:groupmode="layer"
     inkscape:label="ink_ext_XXXXXX"
     transform="matrix(1.3333333,0,0,-1.3333333,0,285.73333)"><g
       id="g10"
       transform="scale(0.1)"><path
         d="M 2321.68,857.301 2003.17,1915.03 h 361.47 l 173.33,-700.71 173.32,700.71 h 355.54 L 2745.37,857.301 h -423.69"
         style="fill:#193958;fill-opacity:1;fill-rule:nonzero;stroke:none"
         id="path12" /><path
         d="m 3573.8,1440.97 c 48.37,0 83.69,8.89 105.92,26.67 22.22,17.78 33.33,46.41 33.33,85.92 0,39.49 -11.11,68.15 -33.33,85.93 -22.23,17.77 -57.55,26.66 -105.92,26.66 H 3461.21 V 1440.97 Z M 3748.6,857.301 3579.72,1196.54 H 3461.21 V 857.301 H 3145.66 V 1915.03 h 453.32 c 141.22,0 248.14,-29.14 320.73,-87.4 72.59,-58.29 108.88,-144.7 108.88,-259.25 0,-136.29 -51.85,-238.02 -155.55,-305.18 L 4092.29,857.301 H 3748.6"
         style="fill:#193958;fill-opacity:1;fill-rule:nonzero;stroke:none"
         id="path14" /><path
         d="M 1866.03,1916.01 2184.54,858.281 H 1823.07 L 1649.75,1558.99 1476.42,858.281 h -355.54 l 321.47,1057.729 h 423.68"
         style="fill:#193958;fill-opacity:1;fill-rule:nonzero;stroke:none"
         id="path16" /><path
         d="m 293.23,1676.68 c -5.425,10.11 -7.574,26.25 -16.425,32.64 -22.508,16.26 -73.86,-14.91 -59.629,-42.27 32.527,-62.56 56.953,-54.53 9.351,-71.11 -45.336,-15.79 -117.839,-34.95 -156.9723,-21.56 -22.4414,7.68 -26.9258,30.14 -15.8281,47.57 11.5859,18.19 21.8359,26.87 41.539,41.29 60.1214,43.98 186.3004,97.56 260.6324,116.18 39.563,9.91 92.282,21.43 119.657,4.43 21.972,-13.65 19.383,-37.83 9.867,-52.39 -15.141,-23.16 -38.602,-30.97 -36.426,-42.92 8.602,-3.17 21.977,9.94 29.871,15.57 8.293,5.91 19.203,14.88 26.215,21.69 16.246,15.79 25.336,32.52 20.82,56.55 -6.273,33.36 -21.961,41.48 -43.027,49.96 -54.504,21.92 -153.652,-4.83 -205,-18.96 -67.609,-18.62 -297.0234,-117.07 -276.59375,-209.73 2.95313,-13.39 10.17575,-24.04 18.71095,-31.91 50.0937,-46.21 180.1408,-5.1 236.4258,14.26 8.574,2.96 10.543,3.52 16.879,0.47 18.945,-9.14 35.824,4.42 38.73,20.46 18.637,7.05 37.5,21.73 54.793,18.33 30.344,-5.96 60.266,-9.05 91.446,-12.66 l 92.402,-10.34 c 21.391,-2.18 33.227,1.53 43.801,-10.93 9.625,-11.34 60.254,-71.82 62.945,-78.87 -32.051,-30.27 -63.758,-55.67 -98.476,-84.04 -16.719,-13.66 -92.458,-73.92 -106.559,-80.97 -14.406,18.03 -43.859,8.07 -55.738,-7.44 -12.875,-16.81 10.433,-40.99 20.05,-55.81 12.168,-18.75 22.946,-41.2 48.301,-25.57 17.516,10.8 -1.961,41.39 -2.863,59.9 38.848,26.33 83.277,45.97 122.547,73.02 14.84,10.21 43.293,28.94 59.027,36.83 12.832,6.42 48.09,33.76 58.402,33.95 12.579,-6.5 20.461,-29.4 37.801,-25.45 15.449,3.53 39.231,11.68 55.231,18.32 13.66,5.66 26.801,11 39.531,18.94 25.254,15.74 20.766,3.85 21.484,49.97 9.633,6.51 52.899,13.93 67.305,16.47 27.863,4.93 193.433,46.18 199.793,45.97 10.17,-12.18 19.37,-49.59 40.78,-43.69 13.7,3.78 20.44,10.08 19.33,22.32 -0.91,10.14 -3.68,21.12 -5.05,30.94 -2.56,18.47 -3.1,49.67 -25.1,52.21 -9.48,1.09 -21.5,-2.3 -32.57,-9.61 -11.87,-7.84 -9.53,-12.91 -12.38,-23.48 -9.46,-4.73 -231.377,-30.83 -256.057,-24.19 -3.062,12.52 -2.48,33.32 -4.308,47.69 -1.942,15.26 -2.665,30.88 -4.332,46.24 -2.723,25.1 0.273,19.85 15.73,37.89 37.43,43.68 73.074,88.03 107.504,133.76 22.871,30.37 20.394,27.97 58.743,40.65 14.06,4.65 10.65,-2.21 20.87,-2.87 7.15,-0.46 19.45,4.93 24.39,9.99 5.96,6.1 2.57,12.19 10.92,17.45 10.66,6.71 33.05,15.71 47.9,24.43 40.67,23.89 84.89,50.18 110.67,87.96 12.68,18.59 28.58,55.24 1.13,83.77 -31.23,32.46 -84.52,25.73 -125.82,21.02 -65.74,-7.52 -197.354,-57.1 -251.522,-92.43 -47.215,-30.79 -113.023,-69.84 -127.586,-125.5 -8.297,-31.71 14.778,-65.42 43.559,-72.36 13.531,-3.26 28.625,-2.25 44.234,-0.6 9.227,0.97 39.383,2.43 43.524,10.8 -4.02,4.99 -2.86,4.14 -9.727,4.34 -26.016,0.77 -58.199,-9.07 -73.629,20.65 -15.547,29.95 17.723,58.21 41.621,76.52 62.41,47.8 268.846,139.63 359.996,128.77 16.32,-1.94 29.8,-6.23 35.61,-23.71 8.97,-26.98 -28.04,-54.96 -51.54,-72.27 -19.17,-14.12 -71.83,-45.49 -96.24,-52.33 -11.9,24.08 -2.12,81.73 -37.28,85.29 -15.7,1.58 -35.11,-5.97 -44.69,-17.99 -11.793,-14.8 -0.203,-27.75 6.246,-47.15 -13.778,-11.26 -28.305,-26.44 -42.328,-39.63 l -80.793,-81.02 c -7.871,-7.91 -34.598,-37.24 -41.809,-39.3 -5.707,11.66 -4.941,11.68 -14.566,18.19 -21.285,14.39 -34.825,12.31 -61.032,3.52 -65.808,-22.08 -134.175,-49.49 -196.628,-80.19 -17.872,-8.79 -26.426,-11.57 -33.774,-27.49 -9.113,-19.75 -7.562,-21.96 -1.34,-41.1 l -232.676,2.67 v 0"
         style="fill:#2a669e;fill-opacity:1;fill-rule:evenodd;stroke:none"
         id="path18" /><path
         d="m 946.215,1613.04 c 15.937,3.61 46.945,23 62.715,30.98 40.97,20.75 18.01,10.9 63.54,29.15 18.67,7.48 258.22,100.26 214.06,19.84 -23.25,-42.35 -96.47,-58.67 -88.03,-73.78 10.54,-2.83 100.19,39.66 116.01,88.15 18.66,57.15 -67.58,54.62 -105.61,48.04 -92.31,-15.98 -153.41,-35.53 -234.263,-85.13 -19.067,-11.7 -39.301,-34.02 -28.422,-57.25 v 0"
         style="fill:#2d62a7;fill-opacity:1;fill-rule:evenodd;stroke:none"
         id="path20" /><path
         d="m 375.293,1285.07 c -13.48,13.22 -70.859,-23.64 -116.285,-8.8 -85.371,27.89 162.316,132.32 169.344,135.56 41.046,18.9 104.468,30.68 131.734,43.62 -8.922,25.35 -38.82,26.48 -62.359,21.1 -26.207,-6 -54.332,-13.04 -80.664,-23.4 -57.297,-22.55 -98.989,-47.15 -146.204,-79.77 -17.414,-12.04 -41.004,-34.34 -50.461,-49.26 -11.91,-18.79 -18.804,-44.36 10.731,-58.11 19.332,-9 43.289,-9.92 67.73,-6.71 15.036,1.98 68.176,14.75 76.434,25.77 v 0"
         style="fill:#2d62a7;fill-opacity:1;fill-rule:evenodd;stroke:none"
         id="path22" /><path
         d="M 2274.28,1318.3 C 1822.61,1116.12 1248.3,1112.02 868.438,1437.63 c -1.829,-1.04 -3.875,-2.24 -6.172,-3.67 -12.727,-7.93 -25.868,-13.27 -39.532,-18.94 -15.082,-6.25 -37.07,-13.86 -52.484,-17.66 105.234,-95.29 641.42,-515.411 1504.03,-79.06 v 0"
         style="fill:#a5a5a6;fill-opacity:1;fill-rule:evenodd;stroke:none"
         id="path24" /><path
         d="m 3392.74,34.9609 h 29.63 l -6.65,39.2305 z m 31.28,51.5586 14.94,-84.62106 h -11.27 l -4.02,23.58206 h -36.15 L 3373.65,1.89844 h -11.85 l 50.85,84.62106 h 11.37"
         style="fill:#193958;fill-opacity:1;fill-rule:nonzero;stroke:none"
         id="path26" /><path
         d="m 3527.6,50.7188 c 2.69,0 5.29,0.2421 7.83,0.7226 2.52,0.4688 4.75,1.2969 6.69,2.4805 1.94,1.1875 3.5,2.8086 4.68,4.8672 1.19,2.0507 1.78,4.6211 1.78,7.6914 0,1.6679 -0.28,3.1679 -0.83,4.5078 -0.55,1.3437 -1.46,2.4922 -2.72,3.4414 -1.27,0.9492 -2.95,1.6992 -5.04,2.25 -2.1,0.5508 -4.68,0.832 -7.77,0.832 h -17.65 l -5.69,-26.7929 z m -27.14,-39.8204 h 19.08 c 8.61,0 14.7,1.4727 18.25,4.3907 3.56,2.9218 5.34,7.3515 5.34,13.2695 0,3.7227 -1.35,6.8008 -4.03,9.2422 -2.69,2.4492 -6.96,3.6797 -12.8,3.6797 h -19.32 z m 59.14,56.7735 c 0,-5.6914 -1.46,-10.2735 -4.38,-13.75 -2.93,-3.4727 -7.23,-6.1211 -12.92,-7.9414 3.95,-1.7305 6.93,-4.1211 8.94,-7.1719 2.02,-3.0391 3.03,-6.4492 3.03,-10.25 0,-4.0195 -0.69,-7.6992 -2.08,-11.0195 -1.38,-3.3203 -3.51,-6.1172 -6.4,-8.41019 -2.88,-2.29688 -6.59,-4.07813 -11.14,-5.32813 -4.54,-1.26953 -9.93,-1.90234 -16.18,-1.90234 h -30.57 l 17.9,84.62106 h 27.85 c 5.05,0 9.26,-0.5781 12.62,-1.7187 3.36,-1.1524 6.02,-2.6094 8,-4.3906 1.97,-1.7696 3.35,-3.7891 4.15,-6.0391 0.78,-2.25 1.18,-4.4922 1.18,-6.6992"
         style="fill:#193958;fill-opacity:1;fill-rule:nonzero;stroke:none"
         id="path28" /><path
         d="m 3603.8,57.1211 c -5.21,0 -9.68,-1.582 -13.39,-4.7305 -3.71,-3.1718 -6.32,-8.0703 -7.82,-14.6992 h 35.44 c 0.07,0.6289 0.13,1.2774 0.17,1.9492 0.04,0.668 0.06,1.3594 0.06,2.0782 0,2.0507 -0.3,4.0117 -0.89,5.8632 -0.59,1.8594 -1.48,3.5 -2.67,4.918 -1.18,1.4219 -2.68,2.5508 -4.49,3.3789 -1.83,0.832 -3.96,1.2422 -6.41,1.2422 z m -22.52,-27.1406 c -0.08,-0.6992 -0.11,-1.4297 -0.11,-2.1797 0,-0.7617 0,-1.4922 0,-2.1992 0,-2.293 0.36,-4.4805 1.06,-6.5703 0.72,-2.1016 1.76,-3.9415 3.14,-5.5196 1.39,-1.582 3.12,-2.8398 5.22,-3.79295 2.09,-0.94922 4.56,-1.41797 7.4,-1.41797 4.9,0 8.58,0.92969 11.03,2.78122 2.44,1.8594 4.26,4.5196 5.45,7.9961 h 10.07 c -0.87,-2.9179 -2.03,-5.5664 -3.49,-7.9375 -1.46,-2.37107 -3.28,-4.3906 -5.46,-6.03904 -2.17,-1.66015 -4.77,-2.92187 -7.82,-3.80078 C 3604.73,0.429688 3601.16,0 3597.05,0 c -4.19,0 -7.89,0.691406 -11.09,2.07031 -3.19,1.39063 -5.92,3.25782 -8.17,5.62891 -2.25,2.37108 -3.95,5.14058 -5.09,8.30078 -1.15,3.1602 -1.72,6.5586 -1.72,10.1914 0,6.2383 0.86,11.7695 2.6,16.5899 1.74,4.8203 4.11,8.8906 7.11,12.207 3.01,3.3203 6.58,5.832 10.73,7.5312 4.15,1.6993 8.59,2.5391 13.33,2.5391 3.87,0 7.27,-0.5898 10.19,-1.7695 2.93,-1.1875 5.38,-2.8282 7.35,-4.918 1.98,-2.0898 3.48,-4.5625 4.51,-7.4102 1.02,-2.8398 1.54,-5.9218 1.54,-9.2421 0,-1.3399 -0.05,-2.8868 -0.12,-4.6172 -0.08,-1.7422 -0.32,-3.4414 -0.71,-5.1016 l -0.48,-2.0195 h -45.75"
         style="fill:#193958;fill-opacity:1;fill-rule:nonzero;stroke:none"
         id="path30" /><path
         d="m 3641.13,1.89844 17.9,84.62106 h 10.31 L 3651.45,1.89844 h -10.32"
         style="fill:#193958;fill-opacity:1;fill-rule:nonzero;stroke:none"
         id="path32" /><path
         d="m 3673.84,1.89844 17.9,84.62106 h 10.31 l -17.9,-84.62106 h -10.31"
         style="fill:#193958;fill-opacity:1;fill-rule:nonzero;stroke:none"
         id="path34" /><path
         d="m 3779.68,50.7188 c 2.68,0 5.29,0.2421 7.82,0.7226 2.53,0.4688 4.76,1.2969 6.69,2.4805 1.94,1.1875 3.5,2.8086 4.68,4.8672 1.19,2.0507 1.78,4.6211 1.78,7.6914 0,1.6679 -0.28,3.1679 -0.83,4.5078 -0.55,1.3437 -1.46,2.4922 -2.72,3.4414 -1.27,0.9492 -2.95,1.6992 -5.04,2.25 -2.1,0.5508 -4.68,0.832 -7.76,0.832 h -17.66 l -5.69,-26.7929 z m -27.15,-39.8204 h 19.08 c 8.62,0 14.7,1.4727 18.26,4.3907 3.55,2.9218 5.33,7.3515 5.33,13.2695 0,3.7227 -1.35,6.8008 -4.03,9.2422 -2.69,2.4492 -6.95,3.6797 -12.8,3.6797 h -19.32 z m 59.14,56.7735 c 0,-5.6914 -1.46,-10.2735 -4.38,-13.75 -2.92,-3.4727 -7.23,-6.1211 -12.92,-7.9414 3.95,-1.7305 6.93,-4.1211 8.95,-7.1719 2.01,-3.0391 3.02,-6.4492 3.02,-10.25 0,-4.0195 -0.69,-7.6992 -2.07,-11.0195 -1.39,-3.3203 -3.52,-6.1172 -6.4,-8.41019 -2.89,-2.29688 -6.6,-4.07813 -11.14,-5.32813 -4.55,-1.26953 -9.94,-1.90234 -16.18,-1.90234 h -30.58 l 17.9,84.62106 h 27.85 c 5.06,0 9.26,-0.5781 12.62,-1.7187 3.36,-1.1524 6.03,-2.6094 8,-4.3906 1.97,-1.7696 3.36,-3.7891 4.15,-6.0391 0.79,-2.25 1.18,-4.4922 1.18,-6.6992"
         style="fill:#193958;fill-opacity:1;fill-rule:nonzero;stroke:none"
         id="path36" /><path
         d="m 3862.63,54.1602 c -0.78,0.1601 -1.58,0.3007 -2.36,0.4179 -0.8,0.1211 -1.74,0.1836 -2.85,0.1836 -1.5,0 -3.22,-0.2812 -5.15,-0.8398 -1.94,-0.5508 -3.94,-1.6211 -5.99,-3.2031 -2.22,-1.8086 -4.09,-3.7071 -5.63,-5.6797 -1.54,-1.9805 -2.63,-4.4688 -3.26,-7.4688 l -7.58,-35.67186 h -10.31 l 12.92,61.27346 h 10.19 l -2.02,-9.4805 c 3.47,3.9492 6.72,6.6875 9.72,8.2305 3,1.5469 6.24,2.3086 9.72,2.3086 1.1,0 2.11,-0.0703 3.02,-0.2305 0.91,-0.1602 1.67,-0.3203 2.31,-0.4687 l -2.73,-9.3711"
         style="fill:#193958;fill-opacity:1;fill-rule:nonzero;stroke:none"
         id="path38" /><path
         d="m 3911.34,32.7109 -10.19,-0.4804 c -4.58,-0.2305 -8.4,-0.6797 -11.44,-1.3594 -3.04,-0.6719 -5.49,-1.5898 -7.34,-2.7813 -1.86,-1.1796 -3.17,-2.6679 -3.92,-4.4414 -0.75,-1.7773 -1.12,-3.8593 -1.12,-6.2265 0,-2.3711 0.78,-4.3828 2.37,-6.043 1.58,-1.66015 4.15,-2.48827 7.7,-2.48827 2.85,0 5.53,0.42968 8.06,1.30857 2.53,0.8594 4.76,2.0508 6.7,3.5508 1.93,1.5 3.57,3.2695 4.91,5.3281 1.35,2.0625 2.3,4.2735 2.85,6.6407 z M 3884.68,0.480469 c -5.38,0 -9.72,1.441411 -13.04,4.320311 -3.32,2.89063 -4.98,6.89842 -4.98,12.03122 0,4.3399 0.93,7.9375 2.79,10.7774 1.85,2.8515 4.34,5.1406 7.46,6.8789 3.12,1.7422 6.78,2.9805 10.97,3.7305 4.18,0.75 8.65,1.2109 13.39,1.3593 l 11.62,0.3633 0.35,1.6602 c 0.39,1.8203 0.59,3.4375 0.59,4.8593 0,3.1602 -0.93,5.711 -2.78,7.6407 -1.86,1.9375 -5.04,2.9101 -9.55,2.9101 -4.97,0 -8.69,-0.6719 -11.13,-2.0234 -2.46,-1.3477 -4.35,-3.7891 -5.69,-7.3399 l -9.37,1.1836 c 1.9,5.9297 5.04,10.1094 9.43,12.5586 4.38,2.4492 10.29,3.668 17.71,3.668 7.19,0 12.56,-1.6172 16.12,-4.8477 3.56,-3.2421 5.33,-7.7109 5.33,-13.3906 0,-2.4492 -0.27,-4.8203 -0.82,-7.1211 l -7.95,-37.80076 h -10.07 l 1.78,8.41016 c -2.85,-2.91797 -5.97,-5.28907 -9.37,-7.10938 -3.39,-1.82031 -7.66,-2.718751 -12.79,-2.718751"
         style="fill:#193958;fill-opacity:1;fill-rule:nonzero;stroke:none"
         id="path40" /><path
         d="m 3978.42,1.89844 7.94,37.57036 c 0.24,1.0195 0.43,2.0312 0.6,3.0195 0.15,0.9922 0.23,1.9609 0.23,2.9101 0,3.3125 -0.79,5.9336 -2.37,7.8829 -1.58,1.9296 -4.15,2.8984 -7.7,2.8984 -4.59,0 -9.05,-1.6602 -13.4,-4.9805 -2.13,-1.6601 -4.01,-3.4883 -5.63,-5.5078 -1.62,-2.0195 -2.74,-4.5195 -3.37,-7.5312 l -7.71,-36.26176 h -10.31 l 12.92,61.27346 h 10.19 l -2.01,-9.25 c 3.55,4.039 7.25,6.8984 11.08,8.5976 3.83,1.6993 7.61,2.5391 11.32,2.5391 5.69,0 10.03,-1.5273 13.03,-4.6172 3.01,-3.082 4.51,-7.3906 4.51,-12.9219 0,-2.1211 -0.24,-4.3789 -0.71,-6.75 l -8.3,-38.87106 h -10.31"
         style="fill:#193958;fill-opacity:1;fill-rule:nonzero;stroke:none"
         id="path42" /><path
         d="m 4061.62,34.3711 c 0.55,2.5273 0.83,4.9805 0.83,7.3477 0,3.9531 -1.39,7.3828 -4.15,10.3125 -1.34,1.4179 -2.98,2.5273 -4.92,3.3203 -1.94,0.789 -4.21,1.1797 -6.82,1.1797 -3.39,0 -6.47,-0.8125 -9.24,-2.4297 -2.77,-1.6211 -5.11,-3.8125 -7.05,-6.5821 -1.94,-2.7578 -3.42,-5.9804 -4.44,-9.6484 -1.03,-3.6797 -1.55,-7.5703 -1.55,-11.6797 0,-5.4531 1.23,-9.7305 3.68,-12.8633 2.44,-3.1172 5.96,-4.67966 10.55,-4.67966 2.76,0 5.37,0.58203 7.82,1.72266 2.45,1.1406 4.62,2.6875 6.52,4.6172 1.89,1.9414 3.51,4.1523 4.86,6.6406 1.34,2.4922 2.29,5.1094 2.84,7.8828 z m -15.88,30.6875 c 4.18,0 7.97,-0.8867 11.37,-2.6602 3.4,-1.7773 6.2,-4.5586 8.42,-8.3593 l 6.87,32.4804 h 10.31 L 4064.7,1.89844 h -10.08 l 1.66,8.53126 C 4053.51,6.87891 4050.48,4.25 4047.16,2.55078 4043.84,0.851563 4040.04,0 4035.78,0 c -3.95,0 -7.33,0.730469 -10.14,2.19141 -2.8,1.46875 -5.11,3.39843 -6.93,5.80859 -1.82,2.4102 -3.16,5.1797 -4.02,8.3008 -0.88,3.1211 -1.31,6.3398 -1.31,9.6601 0,4.9688 0.75,9.8086 2.26,14.5079 1.5,4.7031 3.65,8.871 6.45,12.5117 2.8,3.6289 6.2,6.5586 10.2,8.7695 3.98,2.2109 8.47,3.3086 13.45,3.3086"
         style="fill:#193958;fill-opacity:1;fill-rule:nonzero;stroke:none"
         id="path44" /><path
         d="m 1198.91,631.371 -20.16,55.899 -19.96,-55.899 z m -30.99,81.938 h 22.81 l 51.71,-135.75 h -24.52 l -12.74,34.613 h -52.67 l -12.54,-34.613 h -23.77 l 51.72,135.75"
         style="fill:#2a669e;fill-opacity:1;fill-rule:nonzero;stroke:none"
         id="path46" /><path
         d="m 1304.23,597.148 c 7.99,0 14.8,1.141 20.44,3.422 5.64,2.282 10.26,5.571 13.88,9.891 3.61,4.301 6.24,9.437 7.89,15.398 1.64,5.95 2.47,12.672 2.47,20.153 0,14.949 -3.17,26.648 -9.51,35.078 -6.34,8.422 -16.73,12.64 -31.18,12.64 h -26.23 v -96.582 z m 3.8,116.161 c 10.02,0 19.01,-1.36 27,-4.09 7.98,-2.719 14.76,-6.879 20.34,-12.449 5.58,-5.579 9.86,-12.579 12.84,-21.008 2.97,-8.43 4.46,-18.282 4.46,-29.563 0,-11.277 -1.58,-21.199 -4.75,-29.758 -3.17,-8.55 -7.73,-15.711 -13.69,-21.48 -5.96,-5.77 -13.21,-10.109 -21.77,-13.031 -8.55,-2.91 -18.22,-4.371 -28.99,-4.371 h -44.49 v 135.75 h 49.05"
         style="fill:#2a669e;fill-opacity:1;fill-rule:nonzero;stroke:none"
         id="path48" /><path
         d="m 1403.67,713.309 37.26,-104.559 37.84,104.559 h 24.52 l -51.52,-135.75 h -22.05 L 1378,713.309 h 25.67"
         style="fill:#2a669e;fill-opacity:1;fill-rule:nonzero;stroke:none"
         id="path50" /><path
         d="m 1572.31,631.371 -20.15,55.899 -19.97,-55.899 z m -30.99,81.938 h 22.81 l 51.72,-135.75 h -24.53 l -12.74,34.613 h -52.66 l -12.55,-34.613 h -23.76 l 51.71,135.75"
         style="fill:#2a669e;fill-opacity:1;fill-rule:nonzero;stroke:none"
         id="path52" /><path
         d="m 1632.39,713.309 h 21.29 l 62.36,-98.098 v 98.098 h 22.43 v -135.75 h -21.29 l -62.55,97.73 v -97.73 h -22.24 v 135.75"
         style="fill:#2a669e;fill-opacity:1;fill-rule:nonzero;stroke:none"
         id="path54" /><path
         d="m 1881.07,623.379 c -0.76,-7.098 -2.47,-13.617 -5.14,-19.578 -2.66,-5.961 -6.34,-11.153 -11.02,-15.59 -4.69,-4.441 -10.4,-7.891 -17.11,-10.359 -6.72,-2.473 -14.52,-3.711 -23.39,-3.711 -9.76,0 -18.48,1.648 -26.14,4.949 -7.67,3.289 -14.14,8.012 -19.39,14.16 -5.27,6.148 -9.26,13.621 -11.98,22.43 -2.73,8.808 -4.09,18.672 -4.09,29.57 0,11.148 1.49,21.16 4.47,30.039 2.97,8.871 7.19,16.383 12.64,22.52 5.45,6.16 11.98,10.839 19.58,14.082 7.61,3.23 15.98,4.839 25.1,4.839 8.49,0 15.84,-1.07 22.06,-3.23 6.2,-2.16 11.5,-5.23 15.87,-9.219 4.37,-3.992 7.86,-8.781 10.46,-14.351 2.59,-5.578 4.53,-11.789 5.8,-18.641 l -22.63,-3.23 c -1.02,4.562 -2.28,8.621 -3.8,12.171 -1.52,3.551 -3.52,6.559 -5.99,9.032 -2.47,2.468 -5.48,4.379 -9.03,5.707 -3.55,1.332 -7.8,1.992 -12.74,1.992 -6.08,0 -11.47,-1.211 -16.16,-3.609 -4.69,-2.411 -8.65,-5.872 -11.88,-10.372 -3.24,-4.492 -5.68,-9.91 -7.32,-16.25 -1.65,-6.339 -2.47,-13.429 -2.47,-21.289 0,-7.992 0.85,-15.152 2.56,-21.48 1.71,-6.352 4.22,-11.77 7.51,-16.262 3.3,-4.5 7.26,-7.918 11.89,-10.269 4.62,-2.352 9.91,-3.508 15.87,-3.508 5.32,0 9.85,0.687 13.59,2.09 3.74,1.386 6.88,3.347 9.42,5.886 2.53,2.532 4.53,5.614 5.98,9.223 1.46,3.609 2.51,7.699 3.14,12.258 h 24.34"
         style="fill:#2a669e;fill-opacity:1;fill-rule:nonzero;stroke:none"
         id="path56" /><path
         d="m 1902.74,713.309 h 90.31 v -19.77 h -67.3 V 657.41 h 63.5 v -19.961 h -63.5 V 597.34 h 70.91 L 1994,577.559 h -91.26 v 135.75"
         style="fill:#2a669e;fill-opacity:1;fill-rule:nonzero;stroke:none"
         id="path58" /><path
         d="m 2063.77,597.148 c 7.99,0 14.8,1.141 20.44,3.422 5.64,2.282 10.27,5.571 13.88,9.891 3.61,4.301 6.24,9.437 7.89,15.398 1.65,5.95 2.47,12.672 2.47,20.153 0,14.949 -3.17,26.648 -9.5,35.078 -6.34,8.422 -16.74,12.64 -31.18,12.64 h -26.24 v -96.582 z m 3.81,116.161 c 10.01,0 19.01,-1.36 26.99,-4.09 7.99,-2.719 14.77,-6.879 20.35,-12.449 5.57,-5.579 9.85,-12.579 12.83,-21.008 2.98,-8.43 4.47,-18.282 4.47,-29.563 0,-11.277 -1.59,-21.199 -4.75,-29.758 -3.18,-8.55 -7.74,-15.711 -13.69,-21.48 -5.96,-5.77 -13.22,-10.109 -21.77,-13.031 -8.56,-2.91 -18.23,-4.371 -29,-4.371 h -44.49 v 135.75 h 49.06"
         style="fill:#2a669e;fill-opacity:1;fill-rule:nonzero;stroke:none"
         id="path60" /><path
         d="m 2212.26,713.309 37.26,-104.559 37.83,104.559 h 24.53 l -51.52,-135.75 h -22.05 l -51.72,135.75 h 25.67"
         style="fill:#2a669e;fill-opacity:1;fill-rule:nonzero;stroke:none"
         id="path62" /><path
         d="m 2328.61,713.309 h 90.31 v -19.77 h -67.3 V 657.41 h 63.5 v -19.961 h -63.5 V 597.34 h 70.91 l -2.66,-19.781 h -91.26 v 135.75"
         style="fill:#2a669e;fill-opacity:1;fill-rule:nonzero;stroke:none"
         id="path64" /><path
         d="m 2492.5,650.57 c 5.19,0 9.51,0.539 12.93,1.621 3.42,1.071 6.11,2.59 8.08,4.559 1.96,1.961 3.36,4.34 4.18,7.129 0.82,2.793 1.24,5.902 1.24,9.312 0,3.168 -0.48,6.059 -1.43,8.661 -0.95,2.589 -2.54,4.808 -4.75,6.648 -2.22,1.84 -5.17,3.262 -8.85,4.281 -3.67,1.008 -8.23,1.52 -13.68,1.52 h -23.2 V 650.57 Z m -1.71,62.739 c 10.27,0 18.73,-1.2 25.38,-3.61 6.65,-2.41 11.91,-5.551 15.78,-9.41 3.86,-3.867 6.56,-8.148 8.08,-12.84 1.52,-4.687 2.28,-9.308 2.28,-13.879 0,-8.871 -1.74,-16.281 -5.23,-22.242 -3.49,-5.957 -9.09,-10.769 -16.82,-14.449 l 28.13,-59.32 h -25.09 l -24.34,54 c -1.14,-0.129 -2.34,-0.231 -3.61,-0.289 -1.27,-0.059 -2.6,-0.09 -3.99,-0.09 h -24.34 v -53.621 h -22.62 v 135.75 h 46.39"
         style="fill:#2a669e;fill-opacity:1;fill-rule:nonzero;stroke:none"
         id="path66" /><path
         d="m 2596.88,693.352 h -42.97 v 19.957 h 108.75 v -19.957 h -42.78 V 577.559 h -23 v 115.793"
         style="fill:#2a669e;fill-opacity:1;fill-rule:nonzero;stroke:none"
         id="path68" /><path
         d="m 2680.72,713.309 h 23.01 v -135.75 h -23.01 v 135.75"
         style="fill:#2a669e;fill-opacity:1;fill-rule:nonzero;stroke:none"
         id="path70" /><path
         d="m 2846.12,623.379 c -0.76,-7.098 -2.47,-13.617 -5.13,-19.578 -2.66,-5.961 -6.34,-11.153 -11.03,-15.59 -4.69,-4.441 -10.39,-7.891 -17.11,-10.359 -6.72,-2.473 -14.51,-3.711 -23.38,-3.711 -9.76,0 -18.48,1.648 -26.15,4.949 -7.67,3.289 -14.13,8.012 -19.39,14.16 -5.26,6.148 -9.25,13.621 -11.98,22.43 -2.73,8.808 -4.09,18.672 -4.09,29.57 0,11.148 1.49,21.16 4.47,30.039 2.98,8.871 7.19,16.383 12.65,22.52 5.44,6.16 11.97,10.839 19.58,14.082 7.61,3.23 15.97,4.839 25.1,4.839 8.49,0 15.84,-1.07 22.05,-3.23 6.21,-2.16 11.5,-5.23 15.87,-9.219 4.38,-3.992 7.87,-8.781 10.46,-14.351 2.6,-5.578 4.53,-11.789 5.8,-18.641 l -22.63,-3.23 c -1.01,4.562 -2.28,8.621 -3.79,12.171 -1.53,3.551 -3.52,6.559 -6,9.032 -2.46,2.468 -5.48,4.379 -9.03,5.707 -3.55,1.332 -7.79,1.992 -12.73,1.992 -6.09,0 -11.48,-1.211 -16.16,-3.609 -4.7,-2.411 -8.65,-5.872 -11.89,-10.372 -3.23,-4.492 -5.67,-9.91 -7.32,-16.25 -1.65,-6.339 -2.47,-13.429 -2.47,-21.289 0,-7.992 0.86,-15.152 2.57,-21.48 1.71,-6.352 4.21,-11.77 7.51,-16.262 3.29,-4.5 7.25,-7.918 11.88,-10.269 4.63,-2.352 9.92,-3.508 15.88,-3.508 5.32,0 9.85,0.687 13.59,2.09 3.74,1.386 6.87,3.347 9.41,5.886 2.54,2.532 4.53,5.614 5.99,9.223 1.46,3.609 2.5,7.699 3.14,12.258 h 24.33"
         style="fill:#2a669e;fill-opacity:1;fill-rule:nonzero;stroke:none"
         id="path72" /><path
         d="m 2935.29,631.371 -20.16,55.899 -19.95,-55.899 z m -30.99,81.938 h 22.82 l 51.71,-135.75 h -24.53 l -12.74,34.613 h -52.66 l -12.55,-34.613 h -23.76 l 51.71,135.75"
         style="fill:#2a669e;fill-opacity:1;fill-rule:nonzero;stroke:none"
         id="path74" /><path
         d="M 3018.37,713.309 V 597.531 h 67.31 l -2.86,-19.972 h -87.45 v 135.75 h 23"
         style="fill:#2a669e;fill-opacity:1;fill-rule:nonzero;stroke:none"
         id="path76" /><path
         d="m 3194.81,650.57 c 5.19,0 9.5,0.539 12.92,1.621 3.43,1.071 6.12,2.59 8.08,4.559 1.97,1.961 3.36,4.34 4.19,7.129 0.82,2.793 1.23,5.902 1.23,9.312 0,3.168 -0.47,6.059 -1.43,8.661 -0.95,2.589 -2.53,4.808 -4.75,6.648 -2.21,1.84 -5.16,3.262 -8.84,4.281 -3.67,1.008 -8.24,1.52 -13.69,1.52 h -23.19 V 650.57 Z m -1.71,62.739 c 10.26,0 18.72,-1.2 25.37,-3.61 6.66,-2.41 11.92,-5.551 15.78,-9.41 3.87,-3.867 6.57,-8.148 8.09,-12.84 1.52,-4.687 2.28,-9.308 2.28,-13.879 0,-8.871 -1.75,-16.281 -5.23,-22.242 -3.49,-5.957 -9.1,-10.769 -16.83,-14.449 l 28.14,-59.32 h -25.1 l -24.33,54 c -1.14,-0.129 -2.35,-0.231 -3.61,-0.289 -1.27,-0.059 -2.6,-0.09 -4,-0.09 h -24.33 v -53.621 h -22.63 v 135.75 h 46.4"
         style="fill:#2a669e;fill-opacity:1;fill-rule:nonzero;stroke:none"
         id="path78" /><path
         d="m 3325.99,593.922 c 13.05,0 22.94,4.59 29.66,13.777 6.71,9.192 10.08,21.77 10.08,37.742 0,7.981 -0.86,15.141 -2.57,21.481 -1.71,6.34 -4.21,11.719 -7.51,16.16 -3.3,4.43 -7.42,7.859 -12.36,10.27 -4.94,2.398 -10.71,3.609 -17.3,3.609 -6.59,0 -12.36,-1.211 -17.3,-3.609 -4.94,-2.411 -9.1,-5.84 -12.46,-10.27 -3.35,-4.441 -5.86,-9.82 -7.5,-16.16 -1.65,-6.34 -2.48,-13.5 -2.48,-21.481 0,-15.972 3.33,-28.55 9.98,-37.742 6.66,-9.187 16.58,-13.777 29.76,-13.777 z m 0.19,-19.781 c -9.76,0 -18.54,1.621 -26.33,4.847 -7.8,3.231 -14.48,7.891 -20.06,13.981 -5.58,6.07 -9.86,13.519 -12.84,22.332 -2.98,8.808 -4.46,18.789 -4.46,29.949 0,11.148 1.52,21.16 4.56,30.039 3.04,8.871 7.35,16.383 12.93,22.52 5.57,6.16 12.29,10.839 20.15,14.082 7.86,3.23 16.55,4.839 26.05,4.839 9.63,0 18.38,-1.609 26.23,-4.839 7.87,-3.243 14.52,-7.891 19.97,-13.981 5.45,-6.078 9.66,-13.531 12.64,-22.34 2.98,-8.808 4.47,-18.789 4.47,-29.941 0,-11.277 -1.46,-21.328 -4.37,-30.129 -2.92,-8.82 -7.1,-16.289 -12.55,-22.441 -5.45,-6.149 -12.08,-10.84 -19.87,-14.071 -7.79,-3.226 -16.63,-4.847 -26.52,-4.847"
         style="fill:#2a669e;fill-opacity:1;fill-rule:nonzero;stroke:none"
         id="path80" /><path
         d="m 3463.45,596.012 c 5.44,0 9.98,0.5 13.59,1.519 3.62,1.008 6.46,2.469 8.56,4.367 2.09,1.903 3.58,4.184 4.47,6.852 0.88,2.66 1.33,5.629 1.33,8.93 0,6.84 -1.94,12.07 -5.8,15.691 -3.87,3.609 -10.56,5.418 -20.06,5.418 h -29.47 v -42.777 z m 0,61.597 c 8.99,0 15.27,1.641 18.82,4.942 3.55,3.289 5.32,8.051 5.32,14.258 0,6.461 -2.06,11.121 -6.18,13.972 -4.12,2.86 -11.25,4.278 -21.38,4.278 h -23.96 v -37.45 z m -49.62,55.7 h 46.95 c 9.89,0 18,-0.918 24.34,-2.75 6.34,-1.848 11.38,-4.379 15.11,-7.61 3.74,-3.23 6.31,-7.027 7.71,-11.41 1.39,-4.367 2.09,-9.027 2.09,-13.969 0,-5.711 -1.27,-11 -3.8,-15.871 -2.54,-4.879 -7.17,-8.91 -13.88,-12.078 4.3,-1.902 7.85,-4.062 10.64,-6.461 2.79,-2.41 5.01,-4.98 6.65,-7.711 1.66,-2.719 2.79,-5.57 3.43,-8.551 0.63,-2.976 0.95,-5.988 0.95,-9.027 0,-5.582 -0.86,-10.84 -2.57,-15.781 -1.71,-4.942 -4.53,-9.219 -8.46,-12.828 -3.93,-3.621 -9.06,-6.473 -15.4,-8.563 -6.34,-2.09 -14.13,-3.14 -23.38,-3.14 h -50.38 v 135.75"
         style="fill:#2a669e;fill-opacity:1;fill-rule:nonzero;stroke:none"
         id="path82" /><path
         d="m 3594.44,593.922 c 13.06,0 22.94,4.59 29.66,13.777 6.72,9.192 10.08,21.77 10.08,37.742 0,7.981 -0.85,15.141 -2.56,21.481 -1.72,6.34 -4.22,11.719 -7.52,16.16 -3.29,4.43 -7.41,7.859 -12.35,10.27 -4.95,2.398 -10.72,3.609 -17.31,3.609 -6.59,0 -12.35,-1.211 -17.3,-3.609 -4.94,-2.411 -9.1,-5.84 -12.45,-10.27 -3.36,-4.441 -5.86,-9.82 -7.51,-16.16 -1.65,-6.34 -2.47,-13.5 -2.47,-21.481 0,-15.972 3.32,-28.55 9.98,-37.742 6.65,-9.187 16.57,-13.777 29.75,-13.777 z m 0.19,-19.781 c -9.76,0 -18.54,1.621 -26.33,4.847 -7.79,3.231 -14.48,7.891 -20.06,13.981 -5.57,6.07 -9.86,13.519 -12.83,22.332 -2.98,8.808 -4.47,18.789 -4.47,29.949 0,11.148 1.52,21.16 4.57,30.039 3.04,8.871 7.34,16.383 12.92,22.52 5.58,6.16 12.3,10.839 20.16,14.082 7.86,3.23 16.54,4.839 26.04,4.839 9.64,0 18.38,-1.609 26.24,-4.839 7.86,-3.243 14.51,-7.891 19.96,-13.981 5.45,-6.078 9.67,-13.531 12.65,-22.34 2.97,-8.808 4.46,-18.789 4.46,-29.941 0,-11.277 -1.46,-21.328 -4.37,-30.129 -2.92,-8.82 -7.1,-16.289 -12.54,-22.441 -5.46,-6.149 -12.08,-10.84 -19.87,-14.071 -7.8,-3.226 -16.64,-4.847 -26.53,-4.847"
         style="fill:#2a669e;fill-opacity:1;fill-rule:nonzero;stroke:none"
         id="path84" /><path
         d="m 3707.75,693.352 h -42.96 v 19.957 h 108.75 v -19.957 h -42.78 V 577.559 h -23.01 v 115.793"
         style="fill:#2a669e;fill-opacity:1;fill-rule:nonzero;stroke:none"
         id="path86" /><path
         d="m 3791.6,713.309 h 23 v -135.75 h -23 v 135.75"
         style="fill:#2a669e;fill-opacity:1;fill-rule:nonzero;stroke:none"
         id="path88" /><path
         d="m 3957,623.379 c -0.76,-7.098 -2.47,-13.617 -5.13,-19.578 -2.66,-5.961 -6.34,-11.153 -11.03,-15.59 -4.69,-4.441 -10.39,-7.891 -17.11,-10.359 -6.72,-2.473 -14.52,-3.711 -23.38,-3.711 -9.76,0 -18.48,1.648 -26.15,4.949 -7.67,3.289 -14.13,8.012 -19.39,14.16 -5.26,6.148 -9.25,13.621 -11.98,22.43 -2.73,8.808 -4.09,18.672 -4.09,29.57 0,11.148 1.49,21.16 4.47,30.039 2.98,8.871 7.19,16.383 12.65,22.52 5.44,6.16 11.97,10.839 19.58,14.082 7.6,3.23 15.97,4.839 25.09,4.839 8.5,0 15.84,-1.07 22.06,-3.23 6.21,-2.16 11.5,-5.23 15.87,-9.219 4.38,-3.992 7.86,-8.781 10.46,-14.351 2.6,-5.578 4.53,-11.789 5.8,-18.641 l -22.63,-3.23 c -1.01,4.562 -2.28,8.621 -3.79,12.171 -1.53,3.551 -3.52,6.559 -6,9.032 -2.47,2.468 -5.48,4.379 -9.03,5.707 -3.55,1.332 -7.79,1.992 -12.74,1.992 -6.08,0 -11.47,-1.211 -16.16,-3.609 -4.69,-2.411 -8.64,-5.872 -11.88,-10.372 -3.23,-4.492 -5.67,-9.91 -7.32,-16.25 -1.65,-6.339 -2.47,-13.429 -2.47,-21.289 0,-7.992 0.86,-15.152 2.57,-21.48 1.71,-6.352 4.21,-11.77 7.5,-16.262 3.3,-4.5 7.26,-7.918 11.89,-10.269 4.63,-2.352 9.92,-3.508 15.87,-3.508 5.33,0 9.86,0.687 13.6,2.09 3.74,1.386 6.87,3.347 9.41,5.886 2.54,2.532 4.53,5.614 5.99,9.223 1.46,3.609 2.5,7.699 3.14,12.258 H 3957"
         style="fill:#2a669e;fill-opacity:1;fill-rule:nonzero;stroke:none"
         id="path90" /><path
         d="m 3996.55,619.012 c 1.01,-8.871 4.21,-15.34 9.6,-19.391 5.38,-4.062 13.4,-6.09 24.05,-6.09 5.19,0 9.57,0.571 13.12,1.719 3.54,1.129 6.4,2.66 8.56,4.559 2.15,1.902 3.67,4.152 4.56,6.75 0.88,2.589 1.33,5.351 1.33,8.273 0,2.148 -0.32,4.277 -0.95,6.367 -0.64,2.09 -1.78,4.02 -3.43,5.801 -1.65,1.77 -3.86,3.32 -6.65,4.66 -2.79,1.328 -6.34,2.371 -10.65,3.129 l -17.3,3.231 c -6.84,1.269 -12.93,2.851 -18.25,4.761 -5.32,1.899 -9.79,4.399 -13.4,7.5 -3.62,3.11 -6.34,6.91 -8.18,11.418 -1.84,4.492 -2.76,9.981 -2.76,16.442 0,6.468 1.3,12.097 3.9,16.918 2.6,4.82 6.18,8.839 10.74,12.07 4.56,3.23 9.98,5.641 16.26,7.23 6.27,1.582 13.08,2.371 20.44,2.371 9.37,0 17.23,-1.07 23.57,-3.23 6.34,-2.16 11.47,-4.969 15.4,-8.461 3.93,-3.488 6.91,-7.508 8.94,-12.07 2.03,-4.571 3.42,-9.321 4.18,-14.258 l -21.67,-3.422 c -1.78,7.602 -4.85,13.242 -9.22,16.922 -4.38,3.68 -11.32,5.508 -20.82,5.508 -5.46,0 -9.99,-0.469 -13.6,-1.418 -3.61,-0.949 -6.53,-2.281 -8.74,-3.992 -2.22,-1.719 -3.81,-3.68 -4.76,-5.899 -0.95,-2.219 -1.42,-4.531 -1.42,-6.941 0,-5.957 1.62,-10.399 4.85,-13.309 3.23,-2.922 8.9,-5.199 17.01,-6.84 l 18.83,-3.621 c 14.32,-2.66 24.84,-7.187 31.56,-13.59 6.71,-6.398 10.07,-15.621 10.07,-27.66 0,-5.699 -1.04,-11 -3.14,-15.879 -2.09,-4.879 -5.29,-9.121 -9.6,-12.73 -4.31,-3.621 -9.67,-6.469 -16.06,-8.559 -6.4,-2.101 -13.85,-3.14 -22.34,-3.14 -17.37,0 -30.99,3.648 -40.88,10.929 -9.89,7.289 -15.34,18.602 -16.35,33.942 h 23.2"
         style="fill:#2a669e;fill-opacity:1;fill-rule:nonzero;stroke:none"
         id="path92" /><path
         d="m 1379.17,301.398 c -1.77,-34.757 -13.54,-61.769 -35.32,-81.039 -21.79,-19.257 -51.45,-28.898 -88.97,-28.898 -42.32,0 -74.87,11.961 -97.66,35.891 -22.8,23.929 -34.19,58.179 -34.19,102.757 0,46.09 11.77,81.723 35.32,106.911 23.55,25.191 56.73,37.781 99.55,37.781 34.25,0 61.01,-8.063 80.28,-24.172 19.27,-16.129 31.54,-40.559 36.83,-73.289 l -85.38,-9.449 c -2.52,11.578 -6.55,20.019 -12.09,25.308 -5.54,5.289 -13.22,7.93 -23.04,7.93 -13.85,0 -24.12,-5.469 -30.79,-16.43 -6.68,-10.961 -10.01,-27.898 -10.01,-50.808 0,-23.68 3.52,-41.063 10.58,-52.141 7.05,-11.078 18,-16.621 32.86,-16.621 21.41,0 33.63,12.09 36.65,36.269 h 85.38"
         style="fill:#2a669e;fill-opacity:1;fill-rule:nonzero;stroke:none"
         id="path94" /><path
         d="m 1560.5,265.129 c 31.48,0 47.22,22.672 47.22,68 0,45.34 -15.74,68 -47.22,68 -31.49,0 -47.22,-22.66 -47.22,-68 0,-45.328 15.73,-68 47.22,-68 z m -1.13,-73.668 c -42.82,0 -76,12.219 -99.55,36.648 -23.55,24.422 -35.32,59.063 -35.32,103.891 0,29.469 5.29,54.898 15.86,76.309 10.58,21.41 26.13,37.839 46.66,49.3 20.53,11.461 45.4,17.192 74.61,17.192 42.82,0 76,-12.223 99.55,-36.653 23.55,-24.418 35.32,-58.929 35.32,-103.507 0,-45.332 -12.03,-80.532 -36.08,-105.582 -24.05,-25.071 -57.74,-37.598 -101.05,-37.598"
         style="fill:#2a669e;fill-opacity:1;fill-rule:nonzero;stroke:none"
         id="path96" /><path
         d="M 1974.17,198.27 V 332 l -40.04,-133.73 h -60.45 L 1833.63,332 V 198.27 h -76.68 V 468 h 98.22 L 1905.03,304.051 1954.9,468 h 97.85 V 198.27 h -78.58"
         style="fill:#2a669e;fill-opacity:1;fill-rule:nonzero;stroke:none"
         id="path98" /><path
         d="m 2226.15,345.602 c 11.84,0 20.34,2.136 25.5,6.418 5.16,4.281 7.75,11.46 7.75,21.539 0,10.07 -2.59,17.242 -7.75,21.531 -5.16,4.281 -13.66,6.422 -25.5,6.422 h -23.04 v -55.91 z M 2120.75,198.27 V 468 h 104.65 c 37.27,0 65.1,-7.809 83.49,-23.422 18.38,-15.617 27.58,-39.156 27.58,-70.637 0,-63.222 -36.9,-94.832 -110.69,-94.832 h -22.67 V 198.27 h -82.36"
         style="fill:#2a669e;fill-opacity:1;fill-rule:nonzero;stroke:none"
         id="path100" /><path
         d="M 2395.02,198.27 V 468 h 200.6 v -66.109 h -116.35 v -34.379 h 108.79 v -66.114 h -108.79 v -37.019 h 123.91 l -6.43,-66.109 h -201.73"
         style="fill:#2a669e;fill-opacity:1;fill-rule:nonzero;stroke:none"
         id="path102" /><path
         d="M 2723.68,198.27 V 394.34 H 2648.5 V 468 h 236.12 v -73.66 h -75.18 V 198.27 h -85.76"
         style="fill:#2a669e;fill-opacity:1;fill-rule:nonzero;stroke:none"
         id="path104" /><path
         d="M 2939.39,198.27 V 468 h 85.76 V 198.27 h -85.76"
         style="fill:#2a669e;fill-opacity:1;fill-rule:nonzero;stroke:none"
         id="path106" /><path
         d="m 3155.1,198.27 v 196.07 h -75.18 V 468 h 236.11 v -73.66 h -75.17 V 198.27 h -85.76"
         style="fill:#2a669e;fill-opacity:1;fill-rule:nonzero;stroke:none"
         id="path108" /><path
         d="M 3370.81,198.27 V 468 h 85.76 V 198.27 h -85.76"
         style="fill:#2a669e;fill-opacity:1;fill-rule:nonzero;stroke:none"
         id="path110" /><path
         d="m 3653.01,265.129 c 31.48,0 47.22,22.672 47.22,68 0,45.34 -15.74,68 -47.22,68 -31.49,0 -47.23,-22.66 -47.23,-68 0,-45.328 15.74,-68 47.23,-68 z m -1.13,-73.668 c -42.82,0 -76,12.219 -99.55,36.648 -23.56,24.422 -35.32,59.063 -35.32,103.891 0,29.469 5.29,54.898 15.87,76.309 10.57,21.41 26.12,37.839 46.65,49.3 20.53,11.461 45.4,17.192 74.61,17.192 42.82,0 76,-12.223 99.55,-36.653 23.54,-24.418 35.32,-58.929 35.32,-103.507 0,-45.332 -12.03,-80.532 -36.08,-105.582 -24.05,-25.071 -57.74,-37.598 -101.05,-37.598"
         style="fill:#2a669e;fill-opacity:1;fill-rule:nonzero;stroke:none"
         id="path112" /><path
         d="m 4016.43,198.27 -86.89,137.128 V 198.27 h -80.09 V 468 h 73.67 l 86.13,-136.379 V 468 h 80.1 V 198.27 h -72.92"
         style="fill:#2a669e;fill-opacity:1;fill-rule:nonzero;stroke:none"
         id="path114" /></g></g></svg>
